<svg width="395" height="92" viewBox="0 0 395 92" fill="none" xmlns="http://www.w3.org/2000/svg">
<path d="M177.588 8C176.912 8 176.339 7.8855 175.868 7.65651C175.398 7.42013 174.997 7.11727 174.667 6.74792L175.769 5.62881C176.291 6.21976 176.934 6.51523 177.698 6.51523C178.11 6.51523 178.415 6.43029 178.613 6.26039C178.811 6.09049 178.911 5.86519 178.911 5.58449C178.911 5.37027 178.852 5.19298 178.734 5.05263C178.617 4.90489 178.378 4.80517 178.018 4.75346L177.257 4.65374C176.441 4.55032 175.843 4.30286 175.46 3.91136C175.086 3.51985 174.898 2.99908 174.898 2.34903C174.898 2.00185 174.964 1.68421 175.097 1.39612C175.229 1.10803 175.416 0.860573 175.659 0.65374C175.909 0.446907 176.21 0.288089 176.563 0.177286C176.923 0.0590952 177.331 0 177.786 0C178.367 0 178.878 0.092336 179.318 0.277008C179.759 0.46168 180.138 0.731302 180.454 1.08587L179.341 2.21607C179.157 2.00185 178.933 1.82825 178.668 1.69529C178.411 1.55494 178.084 1.48476 177.687 1.48476C177.312 1.48476 177.033 1.55125 176.849 1.68421C176.666 1.81717 176.574 2.00185 176.574 2.23823C176.574 2.50415 176.644 2.69621 176.783 2.8144C176.93 2.93259 177.165 3.01754 177.489 3.06925L178.249 3.19114C179.043 3.31671 179.631 3.56417 180.013 3.93352C180.395 4.29548 180.586 4.81256 180.586 5.48476C180.586 5.85411 180.52 6.19391 180.388 6.50415C180.255 6.8144 180.061 7.08033 179.804 7.30194C179.554 7.52354 179.241 7.69714 178.867 7.82271C178.492 7.9409 178.066 8 177.588 8Z" fill="#637394"/>
<path d="M185.966 8C185.444 8 184.974 7.91874 184.555 7.75623C184.136 7.58633 183.779 7.33887 183.485 7.01385C183.192 6.68144 182.964 6.27147 182.802 5.78393C182.64 5.28901 182.56 4.71283 182.56 4.0554C182.56 3.40536 182.64 2.82918 182.802 2.32687C182.964 1.81717 183.192 1.39243 183.485 1.05263C183.779 0.705448 184.136 0.443213 184.555 0.265928C184.974 0.0886426 185.444 0 185.966 0C186.678 0 187.266 0.147738 187.729 0.443213C188.192 0.731302 188.563 1.18929 188.843 1.81717L187.399 2.57064C187.296 2.24561 187.134 1.98707 186.914 1.79501C186.701 1.59557 186.385 1.49584 185.966 1.49584C185.473 1.49584 185.076 1.65836 184.775 1.98338C184.481 2.30102 184.334 2.76639 184.334 3.3795V4.6205C184.334 5.23361 184.481 5.70268 184.775 6.0277C185.076 6.34534 185.473 6.50415 185.966 6.50415C186.377 6.50415 186.704 6.39335 186.947 6.17174C187.197 5.94275 187.38 5.66944 187.498 5.3518L188.865 6.14958C188.578 6.74053 188.2 7.19852 187.729 7.52354C187.266 7.84118 186.678 8 185.966 8Z" fill="#637394"/>
<path d="M192.595 7.86704H190.919V0.132964H194.568C194.92 0.132964 195.24 0.192059 195.527 0.310249C195.813 0.42844 196.056 0.598338 196.254 0.819945C196.46 1.03416 196.618 1.29271 196.728 1.59557C196.838 1.89843 196.894 2.23453 196.894 2.60388C196.894 3.12835 196.776 3.58633 196.541 3.97784C196.313 4.36934 195.964 4.65374 195.494 4.83102L197.004 7.86704H195.141L193.796 5.03047H192.595V7.86704ZM194.358 3.61219C194.608 3.61219 194.803 3.5494 194.942 3.42382C195.089 3.29086 195.163 3.0988 195.163 2.84765V2.36011C195.163 2.10896 195.089 1.92059 194.942 1.79501C194.803 1.66205 194.608 1.59557 194.358 1.59557H192.595V3.61219H194.358Z" fill="#637394"/>
<path d="M199.229 7.86704V0.132964H204.465V1.62881H200.904V3.2133H203.957V4.69806H200.904V6.37119H204.465V7.86704H199.229Z" fill="#637394"/>
<path d="M206.806 7.86704V0.132964H212.042V1.62881H208.482V3.2133H211.535V4.69806H208.482V6.37119H212.042V7.86704H206.806Z" fill="#637394"/>
<path d="M216.732 4.21053L215.993 2.65928H215.96V7.86704H214.384V0.132964H216.213L218.319 3.78947L219.057 5.34072H219.09V0.132964H220.667V7.86704H218.837L216.732 4.21053Z" fill="#637394"/>
<path d="M197.667 16C96.2544 16 12.7619 36.6178 2.07136 63.1056C1.08062 65.5603 2.06041 68.6684 3.38216 68.4355C156.988 100.854 242.858 98.8406 391.951 68.4311C393.273 68.6662 394.253 65.5583 393.262 63.1031C382.567 36.6165 299.077 16 197.667 16Z" fill="url(#paint0_linear_9_579)"/>
<path d="M1.83325 64C12.546 37.0093 96.2112 16 197.834 16C299.453 16 383.116 37.008 393.833 63.9975" stroke="#253554" stroke-width="2" stroke-linecap="round"/>
<defs>
<linearGradient id="paint0_linear_9_579" x1="197.667" y1="16" x2="197.667" y2="92" gradientUnits="userSpaceOnUse">
<stop stop-color="#1F293D"/>
<stop offset="1" stop-color="#1F293D" stop-opacity="0"/>
</linearGradient>
</defs>
</svg>
